# xmcd
#
# Track frame offsets:
#	150
#	46676
#	83625
#	118783
#	147210
#	172247
#	209447
#	222511
#	270065
#	302180
#	333254
#
# Disc length: 4770
#
# Revision: 2
# Processed by: cddbd v1.5.1PL0 Copyright (c) Steve Scherf et al.
# Submitted via: audiograbber 1.83.01
# Normalized: r1:TRMNUM
#
DISCID=9c12a00b
DTITLE=Os Brasilleiros - Ao Vivaço 2005
DYEAR=2005
DGENRE=Forró
TTITLE0=Ab-Estatua-Pipoca-Brasileira
TTITLE1=Vicio-Patricinha-Quebra Nenem
TTITLE2=Fom Fom Fom-O Barquinho
TTITLE3=Danca das Gatinhas-Dia de Festa
TTITLE4=Bate Forte Coracao-Nois Enverga...
TTITLE5=Aviaozinho-Mexe Mexe
TTITLE6=Danca do Refrigerante
TTITLE7=Vem Me Amar-No Compasso da Zabumba
TTITLE8=Minha Vida Sem Voce-Porta Aberta
TTITLE9=Dona da Verdade-Meu Viver
TTITLE10=Soca Pilao-Chico Mineiro
EXTD=
EXTT0=
EXTT1=
EXTT2=
EXTT3=
EXTT4=
EXTT5=
EXTT6=
EXTT7=
EXTT8=
EXTT9=
EXTT10=
PLAYORDER=
